<svg width="470" height="61" viewBox="0 0 470 61" fill="none" xmlns="http://www.w3.org/2000/svg">
<g clip-path="url(#clip0_1171_59816)">
<path d="M130.55 40.0199V20.0199H138.23C140.117 19.9846 141.991 20.3457 143.73 21.0799C145.312 21.7649 146.649 22.9161 147.56 24.3799C148.565 26.1244 149.054 28.1184 148.97 30.1299C149.041 32.061 148.552 33.9714 147.56 35.6299C146.631 37.0898 145.287 38.2388 143.7 38.9299C141.966 39.6834 140.091 40.0584 138.2 40.0299L130.55 40.0199ZM135.89 35.3399H138.05C138.774 35.4087 139.504 35.3189 140.189 35.0766C140.875 34.8343 141.499 34.4453 142.019 33.937C142.539 33.4286 142.942 32.813 143.199 32.133C143.457 31.4531 143.563 30.7251 143.51 29.9999C143.577 28.5892 143.105 27.206 142.19 26.1299C141.645 25.6032 140.994 25.1994 140.279 24.9458C139.565 24.6922 138.805 24.5947 138.05 24.6599H135.89V35.3399Z" fill="#F2B641"/>
<path d="M151.49 40.02V20.02H165.89V24.64H156.8V27.73H164.27V32.05H156.8V35.47H166.52V40.06L151.49 40.02Z" fill="#F2B641"/>
<path d="M168.98 40.0198V20.0198H173.81L181.49 31.1798V20.0098H186.74V40.0098H182.21L174.21 28.5198V40.0098L168.98 40.0198Z" fill="#F2B641"/>
<path d="M194.99 40.0202V24.6402H188.89V19.9902H206.5V24.6402H200.41V40.0002L194.99 40.0202Z" fill="#F2B641"/>
<path d="M203.57 40.02L210.92 20.02H217.01L224.09 40.02H218.36L217.07 35.88H210.38L209.06 40.02H203.57ZM211.46 32.02H215.99L213.77 24.64L211.46 32.02Z" fill="#F2B641"/>
<path d="M225.71 40.02V20.02H231.02V35.34H240.29V40.02H225.71Z" fill="#F2B641"/>
<path d="M243.47 40.02V20.02H246.35V40.02H243.47Z" fill="#003F54"/>
<path d="M250.61 40.0198V20.0198H253.52L264.44 35.6398V20.0098H267.26V40.0098H264.38L253.43 24.3498V40.0098L250.61 40.0198Z" fill="#003F54"/>
<path d="M270.35 37.0201L272.35 35.1601C272.755 35.612 273.193 36.0332 273.66 36.4201C274.19 36.8571 274.784 37.2112 275.42 37.4701C276.148 37.7613 276.926 37.9041 277.71 37.8901C278.819 37.9537 279.915 37.6283 280.81 36.9701C281.166 36.6794 281.45 36.3109 281.64 35.8931C281.831 35.4752 281.923 35.0192 281.91 34.5601C281.942 34.0724 281.844 33.5849 281.627 33.1475C281.409 32.71 281.079 32.3382 280.67 32.0701C279.541 31.4186 278.305 30.9717 277.02 30.7501C275.485 30.4597 274.054 29.7698 272.87 28.7501C272.34 28.276 271.921 27.6901 271.644 27.0348C271.368 26.3794 271.24 25.6708 271.27 24.9601C271.263 24.0015 271.523 23.0599 272.02 22.2401C272.56 21.3696 273.342 20.6748 274.27 20.2401C275.419 19.6982 276.68 19.4377 277.95 19.4801C279.05 19.4444 280.147 19.621 281.18 20.0001C281.909 20.2808 282.585 20.6832 283.18 21.1901C283.545 21.519 283.88 21.8805 284.18 22.2701L282.26 24.0401C282.014 23.7562 281.743 23.4951 281.45 23.2601C281.012 22.9028 280.523 22.6129 280 22.4001C279.305 22.1334 278.564 22.0076 277.82 22.0301C277.108 22.001 276.401 22.1488 275.76 22.4601C275.267 22.7047 274.849 23.0778 274.55 23.5401C274.301 23.9428 274.17 24.4068 274.17 24.8801C274.149 25.324 274.252 25.765 274.467 26.1536C274.683 26.5422 275.002 26.8631 275.39 27.0801C276.49 27.6726 277.673 28.0941 278.9 28.3301C279.893 28.5374 280.854 28.8736 281.76 29.3301C282.642 29.79 283.398 30.4596 283.96 31.2801C284.612 32.276 284.937 33.4506 284.89 34.6401C284.878 35.7199 284.528 36.7688 283.89 37.6401C283.244 38.5398 282.376 39.2565 281.37 39.7201C280.244 40.2463 279.013 40.5096 277.77 40.4901C276.643 40.5087 275.522 40.3258 274.46 39.9501C273.563 39.6282 272.722 39.1658 271.97 38.5801C271.377 38.1186 270.834 37.5957 270.35 37.0201Z" fill="#003F54"/>
<path d="M288.52 32.3998V20.0098H291.4V31.7098C291.387 32.7865 291.539 33.8589 291.85 34.8898C292.118 35.7567 292.667 36.5097 293.41 37.0298C294.342 37.5932 295.423 37.8616 296.51 37.7998C297.588 37.8605 298.658 37.592 299.58 37.0298C300.318 36.5065 300.863 35.7543 301.13 34.8898C301.442 33.8594 301.591 32.7863 301.57 31.7098V20.0098H304.45V32.3998C304.472 33.8188 304.182 35.2255 303.6 36.5198C303.043 37.736 302.134 38.7569 300.99 39.4498C299.597 40.1632 298.055 40.5353 296.49 40.5353C294.925 40.5353 293.383 40.1632 291.99 39.4498C290.835 38.7639 289.918 37.7416 289.36 36.5198C288.781 35.2247 288.494 33.8181 288.52 32.3998Z" fill="#003F54"/>
<path d="M308.56 40.0197V20.0197H314.95C316.362 19.9536 317.767 20.2533 319.03 20.8897C319.973 21.3902 320.743 22.164 321.24 23.1097C321.679 23.974 321.909 24.9299 321.91 25.8997C321.931 27.0902 321.623 28.2635 321.02 29.2897C320.358 30.3127 319.372 31.0839 318.22 31.4797L322.9 40.0297H319.66L315.37 31.8397H311.37V40.0297L308.56 40.0197ZM311.35 29.3997H315.19C316.218 29.472 317.234 29.1381 318.02 28.4697C318.34 28.1421 318.59 27.752 318.754 27.3236C318.917 26.8952 318.991 26.4377 318.97 25.9797C318.999 25.5044 318.925 25.0283 318.753 24.5845C318.58 24.1407 318.313 23.7398 317.97 23.4097C317.177 22.7628 316.171 22.4379 315.15 22.4997H311.37L311.35 29.3997Z" fill="#003F54"/>
<path d="M324.04 40.02L331.87 20.02H334.81L342.64 40.02H339.43L337.36 34.44H329.14L327.07 40.02H324.04ZM329.98 32.02H336.49L333.25 23.23L329.98 32.02Z" fill="#003F54"/>
<path d="M344.98 40.0198V20.0198H347.89L358.81 35.6398V20.0098H361.63V40.0098H358.75L347.8 24.3498V40.0098L344.98 40.0198Z" fill="#003F54"/>
<path d="M380.89 34.8298L382.89 36.5098C382.459 37.1128 381.955 37.6603 381.39 38.1398C380.602 38.8251 379.711 39.382 378.75 39.7898C377.584 40.2834 376.326 40.5254 375.06 40.4998C373.233 40.5332 371.433 40.0589 369.86 39.1298C368.365 38.2368 367.143 36.9499 366.33 35.4098C365.473 33.7694 365.039 31.9405 365.07 30.0898C365.059 28.6907 365.303 27.3013 365.79 25.9898C366.268 24.7482 366.981 23.6106 367.89 22.6398C368.781 21.6686 369.864 20.8924 371.07 20.3598C372.36 19.7991 373.754 19.5195 375.16 19.5398C376.41 19.5074 377.655 19.725 378.82 20.1798C379.749 20.5522 380.608 21.0797 381.36 21.7398C381.95 22.2632 382.477 22.8539 382.93 23.4998L380.93 25.2398C380.572 24.7329 380.167 24.2609 379.72 23.8298C379.186 23.3188 378.567 22.9058 377.89 22.6098C376.847 22.2047 375.725 22.0472 374.611 22.1496C373.497 22.2519 372.422 22.6114 371.47 23.1998C370.419 23.919 369.58 24.9065 369.04 26.0598C368.454 27.3106 368.16 28.6785 368.18 30.0598C368.164 31.4182 368.458 32.7623 369.04 33.9898C369.572 35.1259 370.406 36.0944 371.45 36.7898C372.737 37.6476 374.28 38.0355 375.819 37.8879C377.358 37.7403 378.8 37.0664 379.9 35.9798L380.89 34.8298Z" fill="#003F54"/>
<path d="M385.89 40.02V20.02H398.49V22.57H388.77V28.39H396.09V30.97H388.77V37.45H399.21V40.03L385.89 40.02Z" fill="#003F54"/>
<path d="M402.4 40.0201V36.6401H405.79V40.0001L402.4 40.0201Z" fill="#003F54"/>
<path d="M422.95 34.8298L424.95 36.5098C424.519 37.1128 424.015 37.6603 423.45 38.1398C422.662 38.8251 421.771 39.382 420.81 39.7898C419.644 40.2834 418.386 40.5254 417.12 40.4998C415.293 40.5332 413.493 40.0589 411.92 39.1298C410.425 38.2368 409.203 36.9499 408.39 35.4098C407.533 33.7694 407.1 31.9405 407.13 30.0898C407.119 28.6907 407.363 27.3013 407.85 25.9898C408.31 24.753 409.002 23.6158 409.89 22.6398C410.782 21.6686 411.864 20.8924 413.07 20.3598C414.36 19.7991 415.754 19.5195 417.16 19.5398C418.41 19.5074 419.655 19.725 420.82 20.1798C421.749 20.5522 422.608 21.0797 423.36 21.7398C423.95 22.2632 424.477 22.8539 424.93 23.4998L422.93 25.2398C422.572 24.7329 422.167 24.2609 421.72 23.8298C421.184 23.3295 420.565 22.9267 419.89 22.6398C418.847 22.2347 417.725 22.0772 416.611 22.1796C415.497 22.2819 414.422 22.6414 413.47 23.2298C412.419 23.949 411.58 24.9365 411.04 26.0898C410.454 27.3406 410.16 28.7085 410.18 30.0898C410.164 31.4482 410.458 32.7923 411.04 34.0198C411.572 35.1559 412.406 36.1244 413.45 36.8198C414.737 37.6776 416.28 38.0655 417.819 37.9179C419.358 37.7703 420.8 37.0964 421.9 36.0098L422.95 34.8298Z" fill="#003F54"/>
<path d="M436.89 40.53C435.515 40.5378 434.153 40.2621 432.89 39.72C431.667 39.1904 430.565 38.4182 429.65 37.45C427.744 35.4397 426.691 32.7699 426.71 30C426.701 28.5965 426.962 27.2044 427.48 25.9C427.974 24.6559 428.708 23.5211 429.64 22.56C430.564 21.6028 431.669 20.8381 432.89 20.31C434.157 19.7808 435.517 19.5083 436.89 19.5083C438.263 19.5083 439.623 19.7808 440.89 20.31C442.114 20.8379 443.222 21.6025 444.15 22.56C445.082 23.5233 445.818 24.6573 446.32 25.9C447.36 28.5309 447.36 31.459 446.32 34.09C445.816 35.3374 445.08 36.4777 444.15 37.45C443.212 38.4344 442.082 39.2158 440.83 39.7456C439.577 40.2754 438.23 40.5424 436.87 40.53H436.89ZM436.89 37.83C438.24 37.8615 439.568 37.4851 440.7 36.75C441.778 36.0314 442.647 35.0415 443.22 33.88C443.826 32.6665 444.134 31.3262 444.12 29.97C444.146 28.5859 443.845 27.2153 443.24 25.97C442.675 24.8111 441.808 23.8263 440.73 23.12C439.575 22.4262 438.253 22.0598 436.905 22.0598C435.557 22.0598 434.235 22.4262 433.08 23.12C432.004 23.8266 431.14 24.8115 430.58 25.97C429.972 27.2144 429.667 28.5851 429.69 29.97C429.677 31.3249 429.982 32.6641 430.58 33.88C431.143 35.0422 432.006 36.033 433.08 36.75C434.212 37.4851 435.54 37.8615 436.89 37.83Z" fill="#003F54"/>
<path d="M450.28 40.02L451.21 20.02H453.97L460.06 30.43L466.15 20.02H468.89L469.82 40.02H467L466.3 24.64L460.66 34.09H459.22L453.67 24.76L452.98 40L450.28 40.02Z" fill="#003F54"/>
<path d="M92.99 0C94.56 11.81 65.59 10.34 78.47 31.82C77.89 19.23 111.69 15.13 92.99 0Z" fill="#FCB416"/>
<path d="M109.54 25.1098C109.516 25.0788 109.496 25.0452 109.48 25.0098L101.3 16.5198C101.065 16.2771 100.744 16.1376 100.406 16.132C100.069 16.1264 99.7427 16.2551 99.5 16.4898C99.2573 16.7245 99.1179 17.046 99.1122 17.3836C99.1066 17.7212 99.2353 18.0471 99.47 18.2898L105.47 24.5398C105.01 24.8033 104.616 25.1695 104.32 25.6098L98.11 19.2098C98.0168 19.114 97.9056 19.0374 97.7827 18.9845C97.6599 18.9316 97.5279 18.9034 97.3941 18.9016C97.2604 18.8997 97.1277 18.9242 97.0034 18.9737C96.8792 19.0231 96.7659 19.0966 96.67 19.1898C96.4764 19.3781 96.3655 19.6356 96.3618 19.9057C96.358 20.1757 96.4617 20.4362 96.65 20.6298L103.21 27.3998C102.92 27.8398 102.56 28.3998 102.14 28.9698L95.14 21.7298C94.9517 21.5349 94.6937 21.4227 94.4227 21.418C94.1517 21.4134 93.8899 21.5165 93.695 21.7048C93.5001 21.8931 93.3879 22.1511 93.3832 22.4221C93.3786 22.6931 93.4817 22.9549 93.67 23.1498L100.89 30.6398C100.53 31.1098 100.13 31.6398 99.71 32.1098L92.09 24.2598C91.9967 24.163 91.8849 24.0861 91.7612 24.0335C91.6375 23.9809 91.5044 23.9538 91.37 23.9538C91.2356 23.9538 91.1026 23.9809 90.9789 24.0335C90.8551 24.0861 90.7433 24.163 90.65 24.2598C90.5517 24.3532 90.4734 24.4657 90.4199 24.5903C90.3664 24.7149 90.3388 24.8492 90.3388 24.9848C90.3388 25.1204 90.3664 25.2547 90.4199 25.3793C90.4734 25.5039 90.5517 25.6164 90.65 25.7098L98.41 33.7098C98.01 34.1565 97.59 34.6165 97.15 35.0898L89.15 26.8098C88.9617 26.6149 88.7037 26.5027 88.4327 26.498C88.1617 26.4934 87.9 26.5965 87.705 26.7848C87.5101 26.9731 87.3979 27.2311 87.3932 27.5021C87.3886 27.7731 87.4917 28.0349 87.68 28.2298L95.76 36.5498C95.33 36.9798 94.89 37.4098 94.42 37.8498L86.09 29.1598C85.9744 29.039 85.8362 28.9421 85.6832 28.8747C85.5302 28.8073 85.3654 28.7707 85.1983 28.767C85.0312 28.7633 84.8649 28.7926 84.7091 28.8531C84.5532 28.9136 84.4108 29.0042 84.29 29.1198C84.1692 29.2354 84.0723 29.3736 84.0049 29.5266C83.9375 29.6796 83.9009 29.8444 83.8972 30.0115C83.8935 30.1787 83.9228 30.3449 83.9833 30.5008C84.0438 30.6566 84.1345 30.799 84.25 30.9198L92.53 39.5498C82.2284 48.5186 68.9982 53.403 55.34 53.2798C22.06 53.2798 6.99001 27.4198 6.34001 26.2798C5.88387 25.517 5.14715 24.9631 4.28764 24.7368C3.42813 24.5105 2.51417 24.6297 1.74151 25.069C0.968847 25.5083 0.39892 26.2327 0.153787 27.087C-0.0913466 27.9413 0.00781006 28.8577 0.430016 29.6398C1.13002 30.8798 17.98 60.0598 55.33 60.0598C92.68 60.0598 109.43 30.4198 110.12 29.1598C110.481 28.5146 110.62 27.7686 110.515 27.0367C110.41 26.3049 110.068 25.6278 109.54 25.1098ZM28.26 50.6398C18.62 47.2898 8.26002 38.7298 5.54002 31.5698C5.5085 31.4709 5.51212 31.3642 5.55027 31.2677C5.58842 31.1712 5.65875 31.0908 5.74935 31.0402C5.83995 30.9897 5.94526 30.9719 6.04743 30.9901C6.14961 31.0082 6.24237 31.0611 6.31001 31.1398C12.4409 38.7752 20.0235 45.1207 28.62 49.8098C28.7301 49.8575 28.8167 49.947 28.8607 50.0586C28.9048 50.1702 28.9027 50.2947 28.855 50.4048C28.8073 50.5149 28.7178 50.6015 28.6062 50.6455C28.4946 50.6896 28.3701 50.6875 28.26 50.6398Z" fill="#003F54"/>
<path d="M249.65 53.9943C249.65 53.8183 249.606 53.6663 249.518 53.5383C249.438 53.4103 249.298 53.2983 249.098 53.2023C248.898 53.0983 248.63 53.0023 248.294 52.9143L247.802 52.7703C247.114 52.5863 246.586 52.3103 246.218 51.9423C245.858 51.5663 245.678 51.0863 245.678 50.5023C245.678 50.0143 245.798 49.5823 246.038 49.2063C246.278 48.8303 246.614 48.5423 247.046 48.3423C247.478 48.1343 247.982 48.0303 248.558 48.0303C249.118 48.0303 249.638 48.1263 250.118 48.3183C250.606 48.5023 251.01 48.7623 251.33 49.0983L250.382 50.2863C249.862 49.7903 249.266 49.5423 248.594 49.5423C248.25 49.5423 247.978 49.6143 247.778 49.7583C247.586 49.8943 247.49 50.0903 247.49 50.3463C247.49 50.5703 247.582 50.7543 247.766 50.8983C247.95 51.0343 248.286 51.1703 248.774 51.3063L249.242 51.4503C249.986 51.6583 250.546 51.9663 250.922 52.3743C251.306 52.7823 251.498 53.2903 251.498 53.8983C251.498 54.4023 251.366 54.8463 251.102 55.2303C250.846 55.6063 250.482 55.8983 250.01 56.1063C249.546 56.3143 249.002 56.4183 248.378 56.4183C247.77 56.4183 247.198 56.3143 246.662 56.1063C246.126 55.8903 245.658 55.5863 245.258 55.1943L246.17 53.9463C246.874 54.5863 247.614 54.9063 248.39 54.9063C248.782 54.9063 249.09 54.8263 249.314 54.6663C249.538 54.4983 249.65 54.2743 249.65 53.9943Z" fill="#003F54"/>
<path d="M258.996 50.6823L259.212 50.6583L257.232 54.1503H256.308L254.316 50.6583L254.556 50.6823L254.352 56.2263H252.612L252.984 48.2223H254.724L256.944 52.1583H256.692L258.912 48.2223H260.64L261.012 56.2263H259.188L258.996 50.6823Z" fill="#003F54"/>
<path d="M262.435 48.2223H264.259V56.2263H262.435V48.2223Z" fill="#003F54"/>
<path d="M265.822 48.2223H267.646V54.6303H271.45V56.2263H265.822V48.2223Z" fill="#003F54"/>
<path d="M272.467 48.2223H277.927V49.7823H274.267V54.6663H278.215V56.2263H272.467V48.2223ZM273.379 51.4143H277.027V52.8543H273.379V51.4143Z" fill="#003F54"/>
<path d="M287.73 50.6823L287.946 50.6583L285.966 54.1503H285.042L283.05 50.6583L283.29 50.6823L283.086 56.2263H281.346L281.718 48.2223H283.458L285.678 52.1583H285.426L287.646 48.2223H289.374L289.746 56.2263H287.922L287.73 50.6823Z" fill="#003F54"/>
<path d="M294.374 49.6863H294.542L292.394 56.2263H290.51L293.486 48.2223H295.526L298.49 56.2263H296.534L294.374 49.6863ZM296.834 54.3903H292.106L292.502 53.0343H296.438L296.834 54.3903Z" fill="#003F54"/>
<path d="M299.385 48.2223H302.409C303.321 48.2223 304.101 48.3823 304.749 48.7023C305.397 49.0143 305.893 49.4663 306.237 50.0583C306.589 50.6503 306.765 51.3663 306.765 52.2063C306.765 53.0463 306.589 53.7663 306.237 54.3663C305.893 54.9663 305.393 55.4263 304.737 55.7463C304.089 56.0663 303.309 56.2263 302.397 56.2263H299.385V48.2223ZM304.857 52.2183C304.857 51.4583 304.637 50.8703 304.197 50.4543C303.757 50.0383 303.137 49.8303 302.337 49.8303H301.209V54.6183H302.349C303.141 54.6183 303.757 54.4103 304.197 53.9943C304.637 53.5703 304.857 52.9783 304.857 52.2183Z" fill="#003F54"/>
<path d="M308.01 48.2223H313.47V49.7823H309.81V54.6663H313.758V56.2263H308.01V48.2223ZM308.922 51.4143H312.57V52.8543H308.922V51.4143Z" fill="#003F54"/>
<path d="M321.005 53.9943C321.005 53.8183 320.961 53.6663 320.873 53.5383C320.793 53.4103 320.653 53.2983 320.453 53.2023C320.253 53.0983 319.985 53.0023 319.649 52.9143L319.157 52.7703C318.469 52.5863 317.941 52.3103 317.573 51.9423C317.213 51.5663 317.033 51.0863 317.033 50.5023C317.033 50.0143 317.153 49.5823 317.393 49.2063C317.633 48.8303 317.969 48.5423 318.401 48.3423C318.833 48.1343 319.337 48.0303 319.913 48.0303C320.473 48.0303 320.993 48.1263 321.473 48.3183C321.961 48.5023 322.365 48.7623 322.685 49.0983L321.737 50.2863C321.217 49.7903 320.621 49.5423 319.949 49.5423C319.605 49.5423 319.333 49.6143 319.133 49.7583C318.941 49.8943 318.845 50.0903 318.845 50.3463C318.845 50.5703 318.937 50.7543 319.121 50.8983C319.305 51.0343 319.641 51.1703 320.129 51.3063L320.597 51.4503C321.341 51.6583 321.901 51.9663 322.277 52.3743C322.661 52.7823 322.853 53.2903 322.853 53.8983C322.853 54.4023 322.721 54.8463 322.457 55.2303C322.201 55.6063 321.837 55.8983 321.365 56.1063C320.901 56.3143 320.357 56.4183 319.733 56.4183C319.125 56.4183 318.553 56.3143 318.017 56.1063C317.481 55.8903 317.013 55.5863 316.613 55.1943L317.525 53.9463C318.229 54.5863 318.969 54.9063 319.745 54.9063C320.137 54.9063 320.445 54.8263 320.669 54.6663C320.893 54.4983 321.005 54.2743 321.005 53.9943Z" fill="#003F54"/>
<path d="M324.099 48.2223H325.923V56.2263H324.099V48.2223Z" fill="#003F54"/>
<path d="M333.738 50.6823L333.954 50.6583L331.974 54.1503H331.05L329.058 50.6583L329.298 50.6823L329.094 56.2263H327.354L327.726 48.2223H329.466L331.686 52.1583H331.434L333.654 48.2223H335.382L335.754 56.2263H333.93L333.738 50.6823Z" fill="#003F54"/>
<path d="M337.178 48.2223H340.274C341.162 48.2223 341.862 48.4503 342.374 48.9063C342.886 49.3623 343.142 49.9903 343.142 50.7903C343.142 51.3263 343.026 51.7903 342.794 52.1823C342.57 52.5743 342.246 52.8783 341.822 53.0943C341.398 53.3023 340.894 53.4063 340.31 53.4063H338.078V51.9543H340.082C340.482 51.9543 340.79 51.8583 341.006 51.6663C341.222 51.4663 341.33 51.1863 341.33 50.8263C341.33 50.4583 341.218 50.1743 340.994 49.9743C340.778 49.7743 340.474 49.6743 340.082 49.6743H338.834L338.978 49.5303V56.2263H337.178V48.2223Z" fill="#003F54"/>
<path d="M344.349 48.2223H346.173V54.6303H349.977V56.2263H344.349V48.2223Z" fill="#003F54"/>
<path d="M350.994 48.2223H356.454V49.7823H352.794V54.6663H356.742V56.2263H350.994V48.2223ZM351.906 51.4143H355.554V52.8543H351.906V51.4143Z" fill="#003F54"/>
</g>
<defs>
<clipPath id="clip0_1171_59816">
<rect width="469.79" height="60.03" fill="white"/>
</clipPath>
</defs>
</svg>
